<svg width="20" height="21" viewBox="0 0 20 21" fill="none" xmlns="http://www.w3.org/2000/svg">
<path d="M0.837286 3.76606C0.612648 4.03022 0.387352 4.29373 0.167984 4.5513C-0.262846 4.11652 -0.63834 3.73839 -1 3.37409C-0.083004 2.45578 0.852437 1.51968 1.77602 0.595438C2.70026 1.52166 3.63505 2.45776 4.55072 3.37541C4.19302 3.73312 3.81489 4.11059 3.40382 4.52166C3.16601 4.25618 2.91041 3.97093 2.59025 3.61454V7.4044C4.31555 5.67647 6.08234 3.90835 7.8386 2.14946C7.37549 2.14946 6.85112 2.11718 6.33333 2.15934C5.88472 2.19557 5.57115 2.04801 5.27866 1.71731C4.92358 1.31612 4.51976 0.957757 4.08235 0.527585C4.24769 0.515069 4.33794 0.502552 4.42885 0.502552C8.82148 0.501894 13.2141 0.499917 17.6067 0.502552C19.0086 0.503211 20.0079 1.48015 20.0099 2.87344C20.0171 7.28911 20.0125 11.7041 20.0125 16.1198C20.0125 16.1811 20.0059 16.243 19.9209 16.3629C19.5231 15.9466 19.143 15.5111 18.72 15.1218C18.4453 14.8688 18.3347 14.6053 18.357 14.2338C18.3887 13.714 18.365 13.191 18.365 12.6745C16.6008 14.4406 14.8544 16.1883 13.112 17.9327H16.9091C16.554 17.6429 16.2615 17.4044 15.9743 17.1699C16.4453 16.7167 16.8287 16.3477 17.2016 15.9881C18.0837 16.88 19.0151 17.8214 19.9401 18.7562C19.0441 19.6455 18.1047 20.5783 17.1752 21.5006C16.8261 21.1448 16.4545 20.7667 16.0586 20.3636C16.2813 20.1672 16.5349 19.9433 16.7885 19.7193C16.7727 19.6804 16.7569 19.6416 16.7404 19.6033H16.3775C12.0507 19.6033 7.72398 19.6047 3.39723 19.6027C2.21278 19.6027 1.35902 19.0282 1.03294 17.9834C0.943346 17.6962 0.917655 17.38 0.916996 17.0763C0.90975 12.7707 0.912385 8.465 0.912385 4.15934C0.912385 4.0434 0.912385 3.9268 0.912385 3.81085C0.886693 3.7957 0.861001 3.78121 0.83531 3.76606H0.837286ZM2.56258 16.6831C7.40975 11.8352 12.249 6.99465 17.0935 2.14946C16.4032 2.14946 15.6937 2.14353 14.9842 2.1567C14.8933 2.15868 14.7879 2.24168 14.7154 2.31415C10.7167 6.30888 6.72003 10.3062 2.72596 14.3062C2.65415 14.3787 2.57115 14.4841 2.56917 14.575C2.55599 15.2838 2.56258 15.9933 2.56258 16.6831ZM18.365 3.45776C13.5296 8.29175 8.69499 13.1257 3.86693 17.9525C4.52569 17.9525 5.22464 17.9584 5.92358 17.9452C6.01449 17.9433 6.11858 17.857 6.19104 17.7838C10.1963 13.7825 14.1996 9.77857 18.1996 5.77264C18.2721 5.70018 18.3557 5.59478 18.357 5.50387C18.3702 4.80558 18.365 4.10664 18.365 3.45776ZM18.365 8.08753C15.0758 11.3741 11.7833 14.664 8.49144 17.9525C9.15876 17.9525 9.85705 17.9584 10.556 17.9452C10.6462 17.9433 10.749 17.853 10.8221 17.7799C13.2846 15.3221 15.7444 12.8616 18.2016 10.3985C18.2734 10.326 18.3557 10.2199 18.3577 10.1284C18.3709 9.42943 18.365 8.73114 18.365 8.08753ZM2.56258 12.023C5.861 8.72587 9.14624 5.44129 12.4387 2.14946C11.7793 2.14946 11.1028 2.14353 10.4262 2.15604C10.334 2.15802 10.2266 2.2351 10.1548 2.30624C7.67589 4.77989 5.20026 7.25618 2.72727 9.7351C2.65547 9.80756 2.5718 9.9123 2.56983 10.0039C2.55665 10.6817 2.56258 11.3596 2.56258 12.023Z" fill="#999999"/>
</svg>
