<svg width="20" height="21" viewBox="0 0 20 21" fill="none" xmlns="http://www.w3.org/2000/svg">
<g clip-path="url(#clip0_4_290)">
<g clip-path="url(#clip1_4_290)">
<path d="M0.269455 14.2615H10.11V16.0696H16.2615V14.2654H18.7054C18.8637 16.4157 18.8761 18.3303 16.6707 19.7896C16.6437 19.8074 16.6221 19.8317 16.5623 19.8849C16.8335 20.1101 17.1009 20.3328 17.3655 20.5528C17.0082 20.8943 16.7212 21.1689 16.3922 21.4841C16.1019 21.1846 15.7879 20.8372 15.4458 20.5206C15.3453 20.4274 15.1673 20.3893 15.0215 20.3801C14.7831 20.3656 14.5414 20.4044 14.301 20.405C11.1057 20.407 7.91048 20.4063 4.71457 20.4063C4.56154 20.4063 4.398 20.4359 4.25679 20.3932C3.83054 20.2651 3.55994 20.4628 3.30642 20.7682C3.09034 21.0283 2.84405 21.2628 2.61877 21.5005C2.31468 21.1807 2.03949 20.8917 1.73474 20.5705C1.939 20.3899 2.19843 20.16 2.49004 19.9013C2.28906 19.7574 2.13866 19.6576 1.99614 19.5473C0.928209 18.7243 0.350896 17.6327 0.275366 16.2922C0.23793 15.6282 0.268798 14.9603 0.268798 14.2615H0.269455Z" fill="white"/>
<path d="M0.275543 9.28721C0.270288 9.16834 0.261093 9.06128 0.261093 8.95423C0.260437 7.21375 0.258466 5.47393 0.261093 3.73345C0.26372 1.8209 1.59108 0.486313 3.50101 0.500106C4.14203 0.504703 4.80275 0.491568 5.41882 0.636717C6.5117 0.894833 7.20001 1.65276 7.53235 2.72069C7.59671 2.92824 7.68012 3.02872 7.90803 3.09046C9.19401 3.43921 10.0964 4.64113 10.1128 5.98228C10.1155 6.19836 10.1128 6.41444 10.1128 6.64891H4.02578C3.73548 5.11401 4.56959 3.52985 6.31335 3.03529C6.15573 2.35027 5.48121 1.7723 4.7732 1.74734C4.23792 1.72829 3.70067 1.72632 3.16539 1.74734C2.24261 1.78346 1.50044 2.63071 1.4965 3.64676C1.48994 5.39774 1.49453 7.14938 1.49453 8.90037C1.49453 9.0199 1.49453 9.13944 1.49453 9.28656H0.274229L0.275543 9.28721Z" fill="white"/>
<path d="M10.0931 13.0328C9.96436 13.0328 9.86781 13.0328 9.77126 13.0328C6.64366 13.0328 3.5154 13.0335 0.387794 13.0321C-0.285409 13.0321 -0.769459 12.7136 -0.939566 12.1698C-1.19571 11.3514 -0.615771 10.5633 0.268259 10.5515C1.20877 10.539 2.14929 10.5482 3.0898 10.5482C5.29922 10.5482 7.50798 10.5482 9.71741 10.5482C9.83563 10.5482 9.95385 10.5482 10.0931 10.5482V13.0321V13.0328Z" fill="white"/>
<path d="M15.0237 14.871H11.3634C11.3575 14.7554 11.3477 14.6503 11.3477 14.5452C11.3464 13.277 11.3464 12.0081 11.3477 10.7398C11.3483 9.8223 11.8494 9.31789 12.763 9.31395C13.1019 9.31263 13.4408 9.30541 13.7797 9.31592C14.5409 9.34022 15.0381 9.85185 15.0401 10.615C15.044 11.9385 15.0414 13.2612 15.0401 14.5846C15.0401 14.6707 15.0309 14.7561 15.0237 14.871Z" fill="white"/>
<path d="M16.2832 13.021V10.5482C16.8782 10.5482 17.4648 10.5462 18.0506 10.5489C18.356 10.5502 18.668 10.5252 18.9668 10.5745C19.619 10.6822 20.0433 11.2162 20.0164 11.8395C19.9901 12.4509 19.5389 12.9757 18.8985 13.0092C18.0394 13.0545 17.1764 13.0204 16.2839 13.0204L16.2832 13.021Z" fill="white"/>
</g>
</g>
<defs>
<clipPath id="clip0_4_290">
<rect width="20" height="20" fill="white" transform="translate(0 0.5)"/>
</clipPath>
<clipPath id="clip1_4_290">
<rect width="21.0171" height="21" fill="white" transform="translate(-1 0.5)"/>
</clipPath>
</defs>
</svg>
