<svg width="20" height="20" viewBox="0 0 20 20" fill="none" xmlns="http://www.w3.org/2000/svg">
<path d="M1.20432 6.54517C2.61021 7.95106 4.8896 7.95106 6.29549 6.54517C6.46825 6.37241 6.61978 6.18646 6.75008 5.99057C7.39505 6.96044 8.49783 7.59963 9.7499 7.59963C11.0021 7.59963 12.105 6.96027 12.75 5.99018C12.8804 6.18624 13.032 6.37233 13.2049 6.54522C14.6107 7.9511 16.8901 7.9511 18.296 6.54522C19.7019 5.13933 19.7019 2.85993 18.296 1.45405L17.9448 1.10285C17.4947 0.652759 16.8843 0.399902 16.2478 0.399902H3.25253C2.61601 0.399902 2.00556 0.652758 1.55548 1.10285L1.20432 1.454C-0.20157 2.85989 -0.20157 5.13929 1.20432 6.54517Z" fill="#A685FA"/>
<path d="M1.3499 8.83857C3.06349 9.68871 5.13462 9.57264 6.75058 8.49036C7.60789 9.06399 8.63956 9.39962 9.7499 9.39962C10.8603 9.39962 11.8921 9.06392 12.7495 8.4902C14.3653 9.57255 16.4363 9.68878 18.1499 8.83889V17.7999H18.4499C18.947 17.7999 19.3499 18.2028 19.3499 18.6999C19.3499 19.197 18.947 19.5999 18.4499 19.5999H13.0499C12.5528 19.5999 12.1499 19.197 12.1499 18.6999V14.4999C12.1499 14.0028 11.747 13.5999 11.2499 13.5999H8.2499C7.75285 13.5999 7.3499 14.0028 7.3499 14.4999V18.6999C7.3499 19.197 6.94696 19.5999 6.4499 19.5999H1.0499C0.552846 19.5999 0.149902 19.197 0.149902 18.6999C0.149902 18.2028 0.552846 17.7999 1.0499 17.7999H1.3499V8.83857Z" fill="#A685FA"/>
</svg>
