<svg width="20" height="20" viewBox="0 0 20 20" fill="none" xmlns="http://www.w3.org/2000/svg">
<path d="M10.25 0.25C10.6642 0.25 11 0.585786 11 1V3.25C11 3.66421 10.6642 4 10.25 4C9.83579 4 9.5 3.66421 9.5 3.25V1C9.5 0.585786 9.83579 0.25 10.25 0.25Z" fill="#A685FA"/>
<path d="M5.75 10C5.75 7.51472 7.76472 5.5 10.25 5.5C12.7353 5.5 14.75 7.51472 14.75 10C14.75 12.4853 12.7353 14.5 10.25 14.5C7.76472 14.5 5.75 12.4853 5.75 10Z" fill="#A685FA"/>
<path d="M17.1443 4.16634C17.4372 3.87344 17.4372 3.39857 17.1443 3.10568C16.8514 2.81278 16.3766 2.81278 16.0837 3.10568L14.4927 4.69667C14.1998 4.98956 14.1998 5.46443 14.4927 5.75733C14.7856 6.05022 15.2605 6.05022 15.5534 5.75733L17.1443 4.16634Z" fill="#A685FA"/>
<path d="M20 10C20 10.4142 19.6642 10.75 19.25 10.75H17C16.5858 10.75 16.25 10.4142 16.25 10C16.25 9.58579 16.5858 9.25 17 9.25H19.25C19.6642 9.25 20 9.58579 20 10Z" fill="#A685FA"/>
<path d="M16.0836 16.8943C16.3765 17.1871 16.8513 17.1871 17.1442 16.8943C17.4371 16.6014 17.4371 16.1265 17.1442 15.8336L15.5532 14.2426C15.2603 13.9497 14.7855 13.9497 14.4926 14.2426C14.1997 14.5355 14.1997 15.0104 14.4926 15.3033L16.0836 16.8943Z" fill="#A685FA"/>
<path d="M10.25 16C10.6642 16 11 16.3358 11 16.75V19C11 19.4142 10.6642 19.75 10.25 19.75C9.83579 19.75 9.5 19.4142 9.5 19V16.75C9.5 16.3358 9.83579 16 10.25 16Z" fill="#A685FA"/>
<path d="M6.0075 15.3033C6.3004 15.0104 6.3004 14.5355 6.0075 14.2426C5.71461 13.9497 5.23974 13.9497 4.94684 14.2426L3.35585 15.8336C3.06296 16.1265 3.06296 16.6014 3.35585 16.8943C3.64875 17.1872 4.12362 17.1872 4.41651 16.8943L6.0075 15.3033Z" fill="#A685FA"/>
<path d="M4.25 10C4.25 10.4142 3.91421 10.75 3.5 10.75H1.25C0.835786 10.75 0.5 10.4142 0.5 10C0.5 9.58579 0.835786 9.25 1.25 9.25H3.5C3.91421 9.25 4.25 9.58579 4.25 10Z" fill="#A685FA"/>
<path d="M4.94673 5.75732C5.23962 6.05021 5.7145 6.05021 6.00739 5.75732C6.30028 5.46443 6.30028 4.98955 6.00739 4.69666L4.4164 3.10567C4.12351 2.81278 3.64863 2.81278 3.35574 3.10567C3.06285 3.39856 3.06285 3.87344 3.35574 4.16633L4.94673 5.75732Z" fill="#A685FA"/>
</svg>
