<svg width="14" height="16" viewBox="0 0 14 16" fill="none" xmlns="http://www.w3.org/2000/svg">
<path fill-rule="evenodd" clip-rule="evenodd" d="M8.96142 0.196214C9.18735 0.322171 9.29825 0.58597 9.23019 0.835523L7.73646 6.31252H13.1875C13.4115 6.31252 13.6141 6.44541 13.7034 6.65084C13.7927 6.85626 13.7516 7.09508 13.5987 7.25882L5.72373 15.6963C5.54724 15.8854 5.26453 15.9298 5.0386 15.8038C4.81268 15.6779 4.70177 15.4141 4.76983 15.1645L6.26356 9.68752H0.812512C0.588527 9.68752 0.385886 9.55463 0.296617 9.3492C0.207348 9.14378 0.248464 8.90496 0.401294 8.74121L8.27629 0.303715C8.45279 0.114615 8.73549 0.0702568 8.96142 0.196214Z" fill="white"/>
</svg>
