<svg width="145" height="41" viewBox="0 0 145 41" fill="none" xmlns="http://www.w3.org/2000/svg">
<path d="M20 41C8.95556 41 0 31.8206 0 20.5H20V41Z" fill="#703BF7"/>
<path d="M0 0C11.0444 0 20 9.17944 20 20.5H0V0Z" fill="#703BF7"/>
<path d="M20 41C31.0444 41 40 31.8206 40 20.5H20V41Z" fill="#703BF7"/>
<path d="M40 20.5C40 9.17944 31.0444 0 20 0V20.5H40Z" fill="#703BF7"/>
<path d="M54.0696 12.9545V27.5H51.4347V12.9545H54.0696ZM65.4315 19.4744L63.0877 19.7301C63.0214 19.4934 62.9054 19.2708 62.7397 19.0625C62.5787 18.8542 62.3609 18.6861 62.0863 18.5582C61.8117 18.4304 61.4755 18.3665 61.0778 18.3665C60.5427 18.3665 60.0929 18.4825 59.7283 18.7145C59.3685 18.9465 59.1909 19.2472 59.1957 19.6165C59.1909 19.9337 59.3069 20.1918 59.5437 20.3906C59.7852 20.5895 60.1829 20.7528 60.7369 20.8807L62.5977 21.2784C63.6299 21.5009 64.3969 21.8537 64.8988 22.3366C65.4054 22.8196 65.6611 23.4517 65.6658 24.233C65.6611 24.9195 65.4599 25.5256 65.0621 26.0511C64.6692 26.572 64.1223 26.9792 63.4215 27.2727C62.7208 27.5663 61.9158 27.7131 61.0067 27.7131C59.6715 27.7131 58.5967 27.4337 57.7823 26.875C56.9679 26.3116 56.4826 25.5279 56.3263 24.5241L58.8335 24.2827C58.9471 24.7751 59.1886 25.1468 59.5579 25.3977C59.9272 25.6487 60.4078 25.7741 60.9996 25.7741C61.6104 25.7741 62.1005 25.6487 62.4698 25.3977C62.8439 25.1468 63.0309 24.8366 63.0309 24.4673C63.0309 24.1548 62.9102 23.8968 62.6687 23.6932C62.4319 23.4896 62.0626 23.3333 61.5607 23.2244L59.6999 22.8338C58.6535 22.616 57.8794 22.2491 57.3775 21.733C56.8756 21.2121 56.627 20.554 56.6317 19.7585C56.627 19.0862 56.8093 18.5038 57.1786 18.0114C57.5527 17.5142 58.0711 17.1307 58.734 16.8608C59.4016 16.5862 60.171 16.4489 61.0423 16.4489C62.3207 16.4489 63.3268 16.7211 64.0607 17.2656C64.7994 17.8101 65.2563 18.5464 65.4315 19.4744ZM70.9251 27.7202C70.2338 27.7202 69.6112 27.5971 69.0572 27.3509C68.5079 27.0999 68.0723 26.7306 67.7504 26.2429C67.4331 25.7552 67.2745 25.1539 67.2745 24.4389C67.2745 23.8234 67.3881 23.3144 67.6154 22.9119C67.8427 22.5095 68.1528 22.1875 68.5458 21.946C68.9388 21.7045 69.3815 21.5223 69.8739 21.3991C70.3711 21.2713 70.8848 21.179 71.4151 21.1222C72.0543 21.0559 72.5728 20.9967 72.9705 20.9446C73.3683 20.8878 73.6571 20.8026 73.837 20.6889C74.0217 20.5705 74.114 20.3883 74.114 20.142V20.0994C74.114 19.5644 73.9554 19.1501 73.6381 18.8565C73.3209 18.563 72.864 18.4162 72.2674 18.4162C71.6377 18.4162 71.1381 18.5535 70.7688 18.8281C70.4042 19.1027 70.158 19.4271 70.0302 19.8011L67.6296 19.4602C67.819 18.7973 68.1315 18.2434 68.5671 17.7983C69.0027 17.3485 69.5354 17.0123 70.1651 16.7898C70.7949 16.5625 71.4909 16.4489 72.2532 16.4489C72.7788 16.4489 73.302 16.5104 73.8228 16.6335C74.3436 16.7566 74.8195 16.9602 75.2504 17.2443C75.6812 17.5237 76.0269 17.9048 76.2873 18.3878C76.5524 18.8707 76.685 19.4744 76.685 20.1989V27.5H74.2134V26.0014H74.1282C73.9719 26.3045 73.7518 26.5885 73.4677 26.8537C73.1883 27.1141 72.8356 27.3248 72.4094 27.4858C71.988 27.642 71.4933 27.7202 70.9251 27.7202ZM71.5927 25.831C72.1088 25.831 72.5562 25.7292 72.935 25.5256C73.3138 25.3172 73.605 25.0426 73.8086 24.7017C74.0169 24.3608 74.1211 23.9891 74.1211 23.5866V22.3011C74.0406 22.3674 73.9033 22.429 73.7092 22.4858C73.5198 22.5426 73.3067 22.5923 73.07 22.6349C72.8332 22.6776 72.5988 22.7154 72.3668 22.7486C72.1348 22.7817 71.9336 22.8101 71.7631 22.8338C71.3796 22.8859 71.0363 22.9711 70.7333 23.0895C70.4303 23.2079 70.1912 23.3736 70.016 23.5866C69.8408 23.795 69.7532 24.0649 69.7532 24.3963C69.7532 24.8698 69.926 25.2273 70.2717 25.4688C70.6173 25.7102 71.0576 25.831 71.5927 25.831ZM82.4094 27.7202C81.7182 27.7202 81.0955 27.5971 80.5415 27.3509C79.9923 27.0999 79.5567 26.7306 79.2347 26.2429C78.9175 25.7552 78.7589 25.1539 78.7589 24.4389C78.7589 23.8234 78.8725 23.3144 79.0998 22.9119C79.3271 22.5095 79.6372 22.1875 80.0302 21.946C80.4232 21.7045 80.8659 21.5223 81.3583 21.3991C81.8555 21.2713 82.3692 21.179 82.8995 21.1222C83.5387 21.0559 84.0572 20.9967 84.4549 20.9446C84.8526 20.8878 85.1415 20.8026 85.3214 20.6889C85.506 20.5705 85.5984 20.3883 85.5984 20.142V20.0994C85.5984 19.5644 85.4397 19.1501 85.1225 18.8565C84.8053 18.563 84.3484 18.4162 83.7518 18.4162C83.122 18.4162 82.6225 18.5535 82.2532 18.8281C81.8886 19.1027 81.6424 19.4271 81.5146 19.8011L79.114 19.4602C79.3034 18.7973 79.6159 18.2434 80.0515 17.7983C80.4871 17.3485 81.0198 17.0123 81.6495 16.7898C82.2792 16.5625 82.9753 16.4489 83.7376 16.4489C84.2631 16.4489 84.7863 16.5104 85.3072 16.6335C85.828 16.7566 86.3039 16.9602 86.7347 17.2443C87.1656 17.5237 87.5112 17.9048 87.7717 18.3878C88.0368 18.8707 88.1694 19.4744 88.1694 20.1989V27.5H85.6978V26.0014H85.6126C85.4563 26.3045 85.2362 26.5885 84.9521 26.8537C84.6727 27.1141 84.32 27.3248 83.8938 27.4858C83.4724 27.642 82.9776 27.7202 82.4094 27.7202ZM83.0771 25.831C83.5932 25.831 84.0406 25.7292 84.4194 25.5256C84.7982 25.3172 85.0894 25.0426 85.293 24.7017C85.5013 24.3608 85.6055 23.9891 85.6055 23.5866V22.3011C85.525 22.3674 85.3877 22.429 85.1935 22.4858C85.0041 22.5426 84.7911 22.5923 84.5543 22.6349C84.3176 22.6776 84.0832 22.7154 83.8512 22.7486C83.6192 22.7817 83.418 22.8101 83.2475 22.8338C82.864 22.8859 82.5207 22.9711 82.2177 23.0895C81.9147 23.2079 81.6755 23.3736 81.5004 23.5866C81.3252 23.795 81.2376 24.0649 81.2376 24.3963C81.2376 24.8698 81.4104 25.2273 81.756 25.4688C82.1017 25.7102 82.542 25.831 83.0771 25.831ZM95.5131 27.7131C94.4241 27.7131 93.489 27.474 92.7077 26.9957C91.9312 26.5175 91.3323 25.857 90.9109 25.0142C90.4942 24.1667 90.2859 23.1913 90.2859 22.0881C90.2859 20.9801 90.4989 20.0024 90.9251 19.1548C91.3512 18.3026 91.9525 17.6397 92.729 17.1662C93.5103 16.688 94.4336 16.4489 95.4989 16.4489C96.3844 16.4489 97.168 16.6122 97.8498 16.9389C98.5363 17.2609 99.0832 17.7178 99.4904 18.3097C99.8976 18.8968 100.13 19.5833 100.186 20.3693H97.729C97.6296 19.8437 97.3929 19.4058 97.0188 19.0554C96.6495 18.7003 96.1547 18.5227 95.5344 18.5227C95.0089 18.5227 94.5472 18.6648 94.1495 18.9489C93.7518 19.2282 93.4416 19.6307 93.2191 20.1562C93.0013 20.6818 92.8924 21.3116 92.8924 22.0455C92.8924 22.7888 93.0013 23.428 93.2191 23.9631C93.4369 24.4934 93.7423 24.9029 94.1353 25.1918C94.533 25.4759 94.9994 25.6179 95.5344 25.6179C95.9132 25.6179 96.2518 25.5469 96.5501 25.4048C96.8531 25.258 97.1064 25.0473 97.31 24.7727C97.5136 24.4981 97.6533 24.1643 97.729 23.7713H100.186C100.125 24.5431 99.8976 25.2273 99.5046 25.8239C99.1116 26.4157 98.5766 26.8797 97.8995 27.2159C97.2224 27.5473 96.427 27.7131 95.5131 27.7131ZM102.411 27.5V12.9545H107.979C109.031 12.9545 109.904 13.1203 110.6 13.4517C111.301 13.7784 111.824 14.2259 112.17 14.794C112.52 15.3622 112.695 16.0062 112.695 16.7259C112.695 17.3177 112.582 17.8243 112.354 18.2457C112.127 18.6624 111.822 19.0009 111.438 19.2614C111.055 19.5218 110.626 19.7088 110.153 19.8224V19.9645C110.669 19.9929 111.164 20.1515 111.637 20.4403C112.115 20.7244 112.506 21.1269 112.809 21.6477C113.112 22.1686 113.263 22.7983 113.263 23.5369C113.263 24.2898 113.081 24.9669 112.717 25.5682C112.352 26.1648 111.803 26.6359 111.069 26.9815C110.335 27.3272 109.412 27.5 108.299 27.5H102.411ZM105.046 25.2983H107.88C108.836 25.2983 109.525 25.116 109.947 24.7514C110.373 24.3821 110.586 23.9086 110.586 23.331C110.586 22.9001 110.479 22.5118 110.266 22.1662C110.053 21.8158 109.75 21.5412 109.357 21.3423C108.964 21.1387 108.496 21.0369 107.951 21.0369H105.046V25.2983ZM105.046 19.1406H107.653C108.107 19.1406 108.517 19.0578 108.881 18.892C109.246 18.7216 109.532 18.4825 109.741 18.1747C109.954 17.8622 110.06 17.4929 110.06 17.0668C110.06 16.5033 109.862 16.0393 109.464 15.6747C109.071 15.3101 108.486 15.1278 107.71 15.1278H105.046V19.1406ZM120.272 27.7131C119.178 27.7131 118.233 27.4858 117.438 27.0312C116.647 26.572 116.039 25.9233 115.613 25.0852C115.186 24.2424 114.973 23.2505 114.973 22.1094C114.973 20.9872 115.186 20.0024 115.613 19.1548C116.043 18.3026 116.645 17.6397 117.417 17.1662C118.188 16.688 119.095 16.4489 120.137 16.4489C120.809 16.4489 121.444 16.5578 122.04 16.7756C122.641 16.9886 123.172 17.3201 123.631 17.7699C124.095 18.2197 124.46 18.7926 124.725 19.4886C124.99 20.1799 125.123 21.0038 125.123 21.9602V22.7486H116.181V21.0156H122.658C122.653 20.5232 122.547 20.0852 122.338 19.7017C122.13 19.3134 121.839 19.008 121.465 18.7855C121.096 18.563 120.665 18.4517 120.172 18.4517C119.647 18.4517 119.185 18.5795 118.787 18.8352C118.39 19.0862 118.079 19.4176 117.857 19.8295C117.639 20.2367 117.528 20.6842 117.523 21.1719V22.6847C117.523 23.3191 117.639 23.8636 117.871 24.3182C118.103 24.768 118.427 25.1136 118.844 25.3551C119.261 25.5919 119.748 25.7102 120.307 25.7102C120.681 25.7102 121.02 25.6581 121.323 25.554C121.626 25.4451 121.889 25.2865 122.111 25.0781C122.334 24.8698 122.502 24.6117 122.615 24.304L125.016 24.5739C124.864 25.2083 124.576 25.7623 124.15 26.2358C123.728 26.7045 123.188 27.0691 122.53 27.3295C121.872 27.5852 121.119 27.7131 120.272 27.7131ZM135.92 19.4744L133.576 19.7301C133.51 19.4934 133.394 19.2708 133.228 19.0625C133.067 18.8542 132.849 18.6861 132.575 18.5582C132.3 18.4304 131.964 18.3665 131.566 18.3665C131.031 18.3665 130.581 18.4825 130.217 18.7145C129.857 18.9465 129.679 19.2472 129.684 19.6165C129.679 19.9337 129.795 20.1918 130.032 20.3906C130.273 20.5895 130.671 20.7528 131.225 20.8807L133.086 21.2784C134.118 21.5009 134.885 21.8537 135.387 22.3366C135.894 22.8196 136.149 23.4517 136.154 24.233C136.149 24.9195 135.948 25.5256 135.55 26.0511C135.157 26.572 134.611 26.9792 133.91 27.2727C133.209 27.5663 132.404 27.7131 131.495 27.7131C130.16 27.7131 129.085 27.4337 128.271 26.875C127.456 26.3116 126.971 25.5279 126.815 24.5241L129.322 24.2827C129.435 24.7751 129.677 25.1468 130.046 25.3977C130.415 25.6487 130.896 25.7741 131.488 25.7741C132.099 25.7741 132.589 25.6487 132.958 25.3977C133.332 25.1468 133.519 24.8366 133.519 24.4673C133.519 24.1548 133.398 23.8968 133.157 23.6932C132.92 23.4896 132.551 23.3333 132.049 23.2244L130.188 22.8338C129.142 22.616 128.368 22.2491 127.866 21.733C127.364 21.2121 127.115 20.554 127.12 19.7585C127.115 19.0862 127.298 18.5038 127.667 18.0114C128.041 17.5142 128.559 17.1307 129.222 16.8608C129.89 16.5862 130.659 16.4489 131.531 16.4489C132.809 16.4489 133.815 16.7211 134.549 17.2656C135.288 17.8101 135.745 18.5464 135.92 19.4744ZM143.722 16.5909V18.5795H137.45V16.5909H143.722ZM138.999 13.9773H141.57V24.2188C141.57 24.5644 141.622 24.8295 141.726 25.0142C141.835 25.1941 141.977 25.3172 142.152 25.3835C142.327 25.4498 142.521 25.483 142.734 25.483C142.895 25.483 143.042 25.4711 143.175 25.4474C143.312 25.4238 143.416 25.4025 143.487 25.3835L143.92 27.3935C143.783 27.4408 143.587 27.4929 143.331 27.5497C143.08 27.6065 142.772 27.6397 142.408 27.6491C141.764 27.6681 141.184 27.571 140.668 27.358C140.152 27.1402 139.742 26.804 139.439 26.3494C139.141 25.8949 138.994 25.3267 138.999 24.6449V13.9773Z" fill="white"/>
</svg>
