<svg width="128" height="34" viewBox="0 0 128 34" fill="none" xmlns="http://www.w3.org/2000/svg">
<path d="M17 34C7.61222 34 0 26.3878 0 17H17V34Z" fill="#703BF7"/>
<path d="M0 0C9.38778 0 17 7.61222 17 17H0V0Z" fill="#703BF7"/>
<path d="M17 34C26.3878 34 34 26.3878 34 17H17V34Z" fill="#703BF7"/>
<path d="M34 17C34 7.61222 26.3878 0 17 0V17H34Z" fill="#703BF7"/>
<path d="M43.5 24V10H45.94V24H43.5ZM51.5992 24.18C51.0792 24.1467 50.5759 24.0433 50.0892 23.87C49.6092 23.69 49.1826 23.4467 48.8092 23.14C48.4359 22.8333 48.1492 22.4667 47.9492 22.04L50.0092 21.16C50.0892 21.2933 50.2192 21.4367 50.3992 21.59C50.5792 21.7367 50.7926 21.86 51.0392 21.96C51.2926 22.06 51.5692 22.11 51.8692 22.11C52.1226 22.11 52.3626 22.0767 52.5892 22.01C52.8226 21.9367 53.0092 21.8267 53.1492 21.68C53.2959 21.5333 53.3692 21.3433 53.3692 21.11C53.3692 20.8633 53.2826 20.6733 53.1092 20.54C52.9426 20.4 52.7292 20.2967 52.4692 20.23C52.2159 20.1567 51.9692 20.09 51.7292 20.03C51.0959 19.9033 50.5059 19.7067 49.9592 19.44C49.4192 19.1733 48.9826 18.83 48.6492 18.41C48.3226 17.9833 48.1592 17.47 48.1592 16.87C48.1592 16.21 48.3326 15.64 48.6792 15.16C49.0326 14.68 49.4892 14.31 50.0492 14.05C50.6159 13.79 51.2259 13.66 51.8792 13.66C52.6726 13.66 53.3992 13.8267 54.0592 14.16C54.7259 14.4867 55.2526 14.95 55.6392 15.55L53.7092 16.69C53.6159 16.53 53.4859 16.3833 53.3192 16.25C53.1526 16.11 52.9626 15.9967 52.7492 15.91C52.5359 15.8167 52.3126 15.7633 52.0792 15.75C51.7792 15.7367 51.5059 15.7633 51.2592 15.83C51.0126 15.8967 50.8126 16.01 50.6592 16.17C50.5126 16.33 50.4392 16.5433 50.4392 16.81C50.4392 17.0633 50.5392 17.2533 50.7392 17.38C50.9392 17.5 51.1792 17.5933 51.4592 17.66C51.7459 17.7267 52.0192 17.8 52.2792 17.88C52.8659 18.0733 53.4159 18.31 53.9292 18.59C54.4492 18.87 54.8659 19.2133 55.1792 19.62C55.4926 20.0267 55.6426 20.5133 55.6292 21.08C55.6292 21.7267 55.4359 22.2933 55.0492 22.78C54.6626 23.26 54.1626 23.6267 53.5492 23.88C52.9426 24.1333 52.2926 24.2333 51.5992 24.18ZM64.7244 14H67.1644V24H64.7244L64.6144 22.76C64.341 23.2067 63.9777 23.57 63.5244 23.85C63.0777 24.1233 62.5477 24.26 61.9344 24.26C61.1944 24.26 60.501 24.12 59.8544 23.84C59.2077 23.56 58.6377 23.1733 58.1444 22.68C57.6577 22.1867 57.2744 21.6167 56.9944 20.97C56.721 20.3233 56.5844 19.63 56.5844 18.89C56.5844 18.1767 56.7144 17.5067 56.9744 16.88C57.241 16.2533 57.611 15.7033 58.0844 15.23C58.5577 14.7567 59.1044 14.3867 59.7244 14.12C60.3444 13.8533 61.011 13.72 61.7244 13.72C62.3844 13.72 62.9744 13.8667 63.4944 14.16C64.021 14.4533 64.4677 14.8267 64.8344 15.28L64.7244 14ZM61.8744 21.91C62.3944 21.91 62.8544 21.78 63.2544 21.52C63.6544 21.26 63.9677 20.91 64.1944 20.47C64.421 20.0233 64.5344 19.5333 64.5344 19C64.5344 18.46 64.421 17.97 64.1944 17.53C63.9677 17.0833 63.651 16.73 63.2444 16.47C62.8444 16.21 62.3877 16.08 61.8744 16.08C61.361 16.08 60.891 16.2133 60.4644 16.48C60.0444 16.74 59.7077 17.09 59.4544 17.53C59.2077 17.97 59.0844 18.46 59.0844 19C59.0844 19.54 59.211 20.03 59.4644 20.47C59.7177 20.91 60.0544 21.26 60.4744 21.52C60.901 21.78 61.3677 21.91 61.8744 21.91ZM76.5017 14H78.9417V24H76.5017L76.3917 22.76C76.1184 23.2067 75.7551 23.57 75.3017 23.85C74.8551 24.1233 74.3251 24.26 73.7117 24.26C72.9717 24.26 72.2784 24.12 71.6317 23.84C70.9851 23.56 70.4151 23.1733 69.9217 22.68C69.4351 22.1867 69.0517 21.6167 68.7717 20.97C68.4984 20.3233 68.3617 19.63 68.3617 18.89C68.3617 18.1767 68.4917 17.5067 68.7517 16.88C69.0184 16.2533 69.3884 15.7033 69.8617 15.23C70.3351 14.7567 70.8817 14.3867 71.5017 14.12C72.1217 13.8533 72.7884 13.72 73.5017 13.72C74.1617 13.72 74.7517 13.8667 75.2717 14.16C75.7984 14.4533 76.2451 14.8267 76.6117 15.28L76.5017 14ZM73.6517 21.91C74.1717 21.91 74.6317 21.78 75.0317 21.52C75.4317 21.26 75.7451 20.91 75.9717 20.47C76.1984 20.0233 76.3117 19.5333 76.3117 19C76.3117 18.46 76.1984 17.97 75.9717 17.53C75.7451 17.0833 75.4284 16.73 75.0217 16.47C74.6217 16.21 74.1651 16.08 73.6517 16.08C73.1384 16.08 72.6684 16.2133 72.2417 16.48C71.8217 16.74 71.4851 17.09 71.2317 17.53C70.9851 17.97 70.8617 18.46 70.8617 19C70.8617 19.54 70.9884 20.03 71.2417 20.47C71.4951 20.91 71.8317 21.26 72.2517 21.52C72.6784 21.78 73.1451 21.91 73.6517 21.91ZM86.9391 20.99L89.1391 22.18C88.6791 22.8067 88.1024 23.31 87.4091 23.69C86.7157 24.07 85.9591 24.26 85.1391 24.26C84.2191 24.26 83.3791 24.0233 82.6191 23.55C81.8657 23.0767 81.2624 22.4433 80.8091 21.65C80.3624 20.85 80.1391 19.9667 80.1391 19C80.1391 18.2667 80.2691 17.5833 80.5291 16.95C80.7891 16.31 81.1457 15.75 81.5991 15.27C82.0591 14.7833 82.5924 14.4033 83.1991 14.13C83.8057 13.8567 84.4524 13.72 85.1391 13.72C85.9591 13.72 86.7157 13.91 87.4091 14.29C88.1024 14.67 88.6791 15.18 89.1391 15.82L86.9391 17C86.7057 16.7333 86.4291 16.5267 86.1091 16.38C85.7957 16.2333 85.4724 16.16 85.1391 16.16C84.6591 16.16 84.2257 16.2933 83.8391 16.56C83.4524 16.82 83.1457 17.1667 82.9191 17.6C82.6924 18.0267 82.5791 18.4933 82.5791 19C82.5791 19.5 82.6924 19.9667 82.9191 20.4C83.1457 20.8267 83.4524 21.17 83.8391 21.43C84.2257 21.69 84.6591 21.82 85.1391 21.82C85.4857 21.82 85.8157 21.7467 86.1291 21.6C86.4424 21.4467 86.7124 21.2433 86.9391 20.99ZM90.6219 24V10H95.7219C96.4619 10 97.1285 10.1533 97.7219 10.46C98.3219 10.76 98.7952 11.1933 99.1419 11.76C99.4952 12.32 99.6719 12.9833 99.6719 13.75C99.6719 14.09 99.6219 14.4333 99.5219 14.78C99.4219 15.1267 99.2685 15.44 99.0619 15.72C98.8552 15.9933 98.5885 16.1967 98.2619 16.33C98.6952 16.4367 99.0485 16.63 99.3219 16.91C99.5952 17.19 99.8085 17.52 99.9619 17.9C100.115 18.2733 100.219 18.6567 100.272 19.05C100.332 19.4367 100.362 19.7967 100.362 20.13C100.362 20.87 100.179 21.53 99.8119 22.11C99.4452 22.69 98.9519 23.15 98.3319 23.49C97.7185 23.83 97.0385 24 96.2919 24H90.6219ZM93.0619 21.91H96.0419C96.4419 21.91 96.8019 21.8133 97.1219 21.62C97.4419 21.4267 97.6985 21.16 97.8919 20.82C98.0852 20.48 98.1819 20.0933 98.1819 19.66C98.1819 19.2867 98.0852 18.9333 97.8919 18.6C97.6985 18.2667 97.4419 17.9967 97.1219 17.79C96.8019 17.5833 96.4419 17.48 96.0419 17.48H93.0619V21.91ZM93.0619 15.42H95.4419C95.9352 15.42 96.3552 15.2667 96.7019 14.96C97.0552 14.6533 97.2319 14.2467 97.2319 13.74C97.2319 13.2 97.0552 12.7933 96.7019 12.52C96.3552 12.24 95.9352 12.1 95.4419 12.1H93.0619V15.42ZM106.233 24.26C105.313 24.26 104.473 24.0233 103.713 23.55C102.959 23.0767 102.356 22.44 101.903 21.64C101.456 20.84 101.233 19.9567 101.233 18.99C101.233 18.2633 101.363 17.5833 101.623 16.95C101.883 16.31 102.239 15.75 102.693 15.27C103.153 14.7833 103.686 14.4033 104.293 14.13C104.899 13.8567 105.546 13.72 106.233 13.72C107.013 13.72 107.726 13.8867 108.373 14.22C109.026 14.5467 109.579 14.9967 110.033 15.57C110.486 16.1433 110.816 16.7967 111.023 17.53C111.229 18.2633 111.276 19.03 111.163 19.83H103.853C103.946 20.2033 104.099 20.54 104.313 20.84C104.526 21.1333 104.796 21.37 105.123 21.55C105.449 21.7233 105.819 21.8133 106.233 21.82C106.659 21.8267 107.046 21.7267 107.393 21.52C107.746 21.3067 108.039 21.02 108.273 20.66L110.763 21.24C110.356 22.1267 109.749 22.8533 108.943 23.42C108.136 23.98 107.233 24.26 106.233 24.26ZM103.773 18H108.693C108.619 17.6 108.463 17.24 108.223 16.92C107.989 16.5933 107.699 16.3333 107.353 16.14C107.006 15.9467 106.633 15.85 106.233 15.85C105.833 15.85 105.463 15.9467 105.123 16.14C104.783 16.3267 104.493 16.5833 104.253 16.91C104.019 17.23 103.859 17.5933 103.773 18ZM115.818 24.18C115.298 24.1467 114.795 24.0433 114.308 23.87C113.828 23.69 113.401 23.4467 113.028 23.14C112.655 22.8333 112.368 22.4667 112.168 22.04L114.228 21.16C114.308 21.2933 114.438 21.4367 114.618 21.59C114.798 21.7367 115.011 21.86 115.258 21.96C115.511 22.06 115.788 22.11 116.088 22.11C116.341 22.11 116.581 22.0767 116.808 22.01C117.041 21.9367 117.228 21.8267 117.368 21.68C117.515 21.5333 117.588 21.3433 117.588 21.11C117.588 20.8633 117.501 20.6733 117.328 20.54C117.161 20.4 116.948 20.2967 116.688 20.23C116.435 20.1567 116.188 20.09 115.948 20.03C115.315 19.9033 114.725 19.7067 114.178 19.44C113.638 19.1733 113.201 18.83 112.868 18.41C112.541 17.9833 112.378 17.47 112.378 16.87C112.378 16.21 112.551 15.64 112.898 15.16C113.251 14.68 113.708 14.31 114.268 14.05C114.835 13.79 115.445 13.66 116.098 13.66C116.891 13.66 117.618 13.8267 118.278 14.16C118.945 14.4867 119.471 14.95 119.858 15.55L117.928 16.69C117.835 16.53 117.705 16.3833 117.538 16.25C117.371 16.11 117.181 15.9967 116.968 15.91C116.755 15.8167 116.531 15.7633 116.298 15.75C115.998 15.7367 115.725 15.7633 115.478 15.83C115.231 15.8967 115.031 16.01 114.878 16.17C114.731 16.33 114.658 16.5433 114.658 16.81C114.658 17.0633 114.758 17.2533 114.958 17.38C115.158 17.5 115.398 17.5933 115.678 17.66C115.965 17.7267 116.238 17.8 116.498 17.88C117.085 18.0733 117.635 18.31 118.148 18.59C118.668 18.87 119.085 19.2133 119.398 19.62C119.711 20.0267 119.861 20.5133 119.848 21.08C119.848 21.7267 119.655 22.2933 119.268 22.78C118.881 23.26 118.381 23.6267 117.768 23.88C117.161 24.1333 116.511 24.2333 115.818 24.18ZM126.919 16.44H124.979V24H122.539V16.44H121.059V14H122.539V10.86H124.979V14H126.919V16.44Z" fill="#141414"/>
</svg>
