<svg width="114" height="35" viewBox="0 0 114 35" fill="none" xmlns="http://www.w3.org/2000/svg">
<path d="M17 34.5C7.61222 34.5 0 26.8878 0 17.5H17V34.5Z" fill="#703BF7"/>
<path d="M0 0.5C9.38778 0.5 17 8.11222 17 17.5H0V0.5Z" fill="#703BF7"/>
<path d="M17 34.5C26.3878 34.5 34 26.8878 34 17.5H17V34.5Z" fill="#703BF7"/>
<path d="M34 17.5C34 8.11222 26.3878 0.5 17 0.5V17.5H34Z" fill="#703BF7"/>
<path d="M111.081 25.1927V19.5212C111.081 18.8661 110.87 18.3269 110.447 17.9037C110.037 17.4806 109.505 17.269 108.85 17.269C108.413 17.269 108.024 17.3646 107.683 17.5557C107.341 17.7468 107.075 18.0129 106.884 18.3542C106.693 18.6954 106.597 19.0844 106.597 19.5212L105.717 19.0298C105.717 18.2791 105.881 17.6171 106.208 17.0438C106.536 16.4569 106.986 15.9996 107.56 15.672C108.147 15.3308 108.802 15.1602 109.525 15.1602C110.262 15.1602 110.918 15.3513 111.491 15.7334C112.064 16.102 112.515 16.5865 112.842 17.1871C113.17 17.7741 113.334 18.3883 113.334 19.0298V25.1927H111.081ZM104.345 25.1927V15.3649H106.597V25.1927H104.345Z" fill="white"/>
<path d="M99.567 25.1928V15.365H101.819V25.1928H99.567ZM100.693 13.5632C100.311 13.5632 99.9902 13.4336 99.7308 13.1742C99.4852 12.9149 99.3623 12.5941 99.3623 12.2119C99.3623 11.8297 99.4852 11.509 99.7308 11.2496C99.9902 10.9903 100.311 10.8606 100.693 10.8606C101.089 10.8606 101.41 10.9903 101.655 11.2496C101.901 11.509 102.024 11.8297 102.024 12.2119C102.024 12.5941 101.901 12.9149 101.655 13.1742C101.41 13.4336 101.089 13.5632 100.693 13.5632Z" fill="white"/>
<path d="M93.1751 25.3974C92.1924 25.3974 91.3051 25.179 90.5135 24.7422C89.7354 24.2918 89.1144 23.6776 88.6503 22.8995C88.1998 22.1215 87.9746 21.2479 87.9746 20.2788C87.9746 19.3097 88.1998 18.4429 88.6503 17.6785C89.1007 16.9005 89.7081 16.2863 90.4725 15.8358C91.2505 15.3854 92.1105 15.1602 93.0523 15.1602C93.9668 15.1602 94.7722 15.3717 95.4683 15.7949C96.1781 16.218 96.7309 16.7981 97.1267 17.5352C97.5362 18.2723 97.741 19.1117 97.741 20.0536C97.741 20.2174 97.7273 20.388 97.7 20.5654C97.6864 20.7292 97.6591 20.9135 97.6181 21.1183H89.5511V19.2755H96.4511L95.6116 20.0126C95.5843 19.412 95.4683 18.907 95.2635 18.4975C95.0588 18.088 94.7653 17.7741 94.3831 17.5557C94.0146 17.3373 93.5573 17.2281 93.0113 17.2281C92.4381 17.2281 91.9398 17.3509 91.5167 17.5966C91.0936 17.8423 90.766 18.1904 90.5339 18.6408C90.3019 19.0776 90.1859 19.6031 90.1859 20.2174C90.1859 20.8316 90.3087 21.3708 90.5544 21.8349C90.8001 22.2989 91.1482 22.6607 91.5986 22.92C92.049 23.1657 92.5677 23.2886 93.1547 23.2886C93.6597 23.2886 94.1238 23.1998 94.5469 23.0224C94.9837 22.8449 95.3523 22.5856 95.6526 22.2444L97.0858 23.698C96.608 24.2577 96.0279 24.6808 95.3454 24.9675C94.663 25.2541 93.9395 25.3974 93.1751 25.3974Z" fill="white"/>
<path d="M82.6461 25.1927V11.27H84.8983V25.1927H82.6461ZM80.2915 17.4124V15.3649H87.2529V17.4124H80.2915Z" fill="white"/>
<path d="M73.3898 25.3974C72.5025 25.3974 71.6972 25.1722 70.9738 24.7218C70.264 24.2713 69.6975 23.6639 69.2744 22.8995C68.8649 22.1215 68.6602 21.2547 68.6602 20.2993C68.6602 19.3301 68.8649 18.4634 69.2744 17.699C69.6975 16.921 70.264 16.3067 70.9738 15.8563C71.6972 15.3922 72.5025 15.1602 73.3898 15.1602C74.1405 15.1602 74.8025 15.324 75.3758 15.6515C75.9627 15.9655 76.4268 16.4023 76.7681 16.9619C77.1093 17.5216 77.2799 18.1563 77.2799 18.866V21.6915C77.2799 22.4013 77.1093 23.036 76.7681 23.5957C76.4405 24.1553 75.9832 24.5989 75.3963 24.9265C74.8093 25.2405 74.1405 25.3974 73.3898 25.3974ZM73.7583 23.2681C74.591 23.2681 75.2598 22.9883 75.7648 22.4286C76.2835 21.869 76.5429 21.1524 76.5429 20.2788C76.5429 19.6919 76.4268 19.1732 76.1948 18.7227C75.9627 18.2723 75.6352 17.9242 75.212 17.6785C74.8025 17.4192 74.318 17.2895 73.7583 17.2895C73.2123 17.2895 72.7278 17.4192 72.3046 17.6785C71.8951 17.9242 71.5675 18.2723 71.3218 18.7227C71.0898 19.1732 70.9738 19.6919 70.9738 20.2788C70.9738 20.8657 71.0898 21.3844 71.3218 21.8349C71.5675 22.2853 71.8951 22.6402 72.3046 22.8995C72.7278 23.1452 73.2123 23.2681 73.7583 23.2681ZM76.3995 25.1927V22.5515L76.7886 20.1559L76.3995 17.7809V15.3649H78.6517V25.1927H76.3995Z" fill="white"/>
<path d="M63.3106 25.1927V11.27H65.5628V25.1927H63.3106ZM60.9561 17.4124V15.3649H67.9174V17.4124H60.9561Z" fill="white"/>
<path d="M56.2331 25.3974C55.6871 25.3974 55.1616 25.3292 54.6566 25.1927C54.1515 25.0425 53.6875 24.8378 53.2643 24.5784C52.8412 24.3055 52.4726 23.9779 52.1587 23.5957L53.5919 22.1625C53.9332 22.5583 54.3222 22.8586 54.759 23.0633C55.2094 23.2544 55.7144 23.35 56.2741 23.35C56.7791 23.35 57.1613 23.2749 57.4207 23.1248C57.68 22.9746 57.8097 22.7562 57.8097 22.4696C57.8097 22.1693 57.6868 21.9372 57.4411 21.7734C57.1954 21.6096 56.8747 21.4731 56.4788 21.3639C56.0966 21.2411 55.6871 21.1182 55.2503 20.9954C54.8272 20.8726 54.4177 20.7088 54.0219 20.504C53.6397 20.2856 53.3257 19.9921 53.08 19.6236C52.8344 19.2551 52.7115 18.7773 52.7115 18.1904C52.7115 17.5625 52.8548 17.0233 53.1415 16.5729C53.4418 16.1225 53.8581 15.7744 54.3904 15.5287C54.9364 15.283 55.5848 15.1602 56.3355 15.1602C57.1272 15.1602 57.8233 15.3035 58.4239 15.5901C59.0381 15.8631 59.55 16.2794 59.9595 16.8391L58.5263 18.2723C58.2396 17.9174 57.912 17.6512 57.5435 17.4738C57.175 17.2963 56.7518 17.2076 56.2741 17.2076C55.8236 17.2076 55.4756 17.2759 55.2299 17.4124C54.9842 17.5489 54.8613 17.7468 54.8613 18.0061C54.8613 18.2791 54.9842 18.4907 55.2299 18.6408C55.4756 18.791 55.7895 18.9206 56.1717 19.0298C56.5675 19.139 56.977 19.2619 57.4002 19.3984C57.837 19.5212 58.2465 19.6987 58.6286 19.9307C59.0245 20.1491 59.3453 20.4494 59.591 20.8316C59.8366 21.2001 59.9595 21.6847 59.9595 22.2853C59.9595 23.2408 59.6251 23.9983 58.9562 24.558C58.2874 25.1176 57.3797 25.3974 56.2331 25.3974Z" fill="white"/>
<path d="M41.249 25.1928V10.8606H43.6036V25.1928H41.249ZM42.8665 25.1928V23.043H50.8925V25.1928H42.8665ZM42.8665 18.9071V16.8392H50.1964V18.9071H42.8665ZM42.8665 13.0104V10.8606H50.7902V13.0104H42.8665Z" fill="white"/>
</svg>
