<svg width="23" height="20" viewBox="0 0 23 20" fill="none" xmlns="http://www.w3.org/2000/svg">
<path fill-rule="evenodd" clip-rule="evenodd" d="M0.950195 1.2999C0.950195 0.802846 1.35314 0.399902 1.8502 0.399902H14.4502C14.9473 0.399902 15.3502 0.802846 15.3502 1.2999C15.3502 1.79696 14.9473 2.1999 14.4502 2.1999H14.1502V18.6999C14.1502 19.197 13.7473 19.5999 13.2502 19.5999H11.4502C10.9531 19.5999 10.5502 19.197 10.5502 18.6999V15.6999C10.5502 15.2028 10.1473 14.7999 9.6502 14.7999H6.6502C6.15314 14.7999 5.7502 15.2028 5.7502 15.6999V18.6999C5.7502 19.197 5.34725 19.5999 4.8502 19.5999H1.8502C1.35314 19.5999 0.950195 19.197 0.950195 18.6999C0.950195 18.2028 1.35314 17.7999 1.8502 17.7999H2.1502V2.1999H1.8502C1.35314 2.1999 0.950195 1.79696 0.950195 1.2999ZM4.5502 4.5999C4.5502 4.26853 4.81882 3.9999 5.1502 3.9999H6.3502C6.68157 3.9999 6.9502 4.26853 6.9502 4.5999V5.7999C6.9502 6.13127 6.68157 6.3999 6.3502 6.3999H5.1502C4.81882 6.3999 4.5502 6.13127 4.5502 5.7999V4.5999ZM5.1502 8.7999C4.81882 8.7999 4.5502 9.06853 4.5502 9.3999V10.5999C4.5502 10.9313 4.81882 11.1999 5.1502 11.1999H6.3502C6.68157 11.1999 6.9502 10.9313 6.9502 10.5999V9.3999C6.9502 9.06853 6.68157 8.7999 6.3502 8.7999H5.1502ZM9.3502 4.5999C9.3502 4.26853 9.61883 3.9999 9.9502 3.9999H11.1502C11.4816 3.9999 11.7502 4.26853 11.7502 4.5999V5.7999C11.7502 6.13127 11.4816 6.3999 11.1502 6.3999H9.9502C9.61883 6.3999 9.3502 6.13127 9.3502 5.7999V4.5999ZM9.9502 8.7999C9.61883 8.7999 9.3502 9.06853 9.3502 9.3999V10.5999C9.3502 10.9313 9.61883 11.1999 9.9502 11.1999H11.1502C11.4816 11.1999 11.7502 10.9313 11.7502 10.5999V9.3999C11.7502 9.06853 11.4816 8.7999 11.1502 8.7999H9.9502Z" fill="#A685FA"/>
<path fill-rule="evenodd" clip-rule="evenodd" d="M16.8502 5.1999C16.3531 5.1999 15.9502 5.60285 15.9502 6.0999V18.3999C15.9502 19.0626 16.4875 19.5999 17.1502 19.5999H21.6502C22.1473 19.5999 22.5502 19.197 22.5502 18.6999C22.5502 18.2028 22.1473 17.7999 21.6502 17.7999H21.3502V6.9999H21.6502C22.1473 6.9999 22.5502 6.59696 22.5502 6.0999C22.5502 5.60285 22.1473 5.1999 21.6502 5.1999H16.8502ZM17.4502 9.3999C17.4502 9.06853 17.7188 8.7999 18.0502 8.7999H19.2502C19.5816 8.7999 19.8502 9.06853 19.8502 9.3999V10.5999C19.8502 10.9313 19.5816 11.1999 19.2502 11.1999H18.0502C17.7188 11.1999 17.4502 10.9313 17.4502 10.5999V9.3999ZM18.0502 13.5999C17.7188 13.5999 17.4502 13.8685 17.4502 14.1999V15.3999C17.4502 15.7313 17.7188 15.9999 18.0502 15.9999H19.2502C19.5816 15.9999 19.8502 15.7313 19.8502 15.3999V14.1999C19.8502 13.8685 19.5816 13.5999 19.2502 13.5999H18.0502Z" fill="#A685FA"/>
</svg>
