<svg width="22" height="19" viewBox="0 0 22 19" fill="none" xmlns="http://www.w3.org/2000/svg">
<path d="M11.25 4.5C10.0074 4.5 9 5.50736 9 6.75C9 7.99264 10.0074 9 11.25 9C12.4926 9 13.5 7.99264 13.5 6.75C13.5 5.50736 12.4926 4.5 11.25 4.5Z" fill="#A685FA"/>
<path fill-rule="evenodd" clip-rule="evenodd" d="M0.75 1.875C0.75 0.839466 1.58947 0 2.625 0H19.875C20.9105 0 21.75 0.839466 21.75 1.875V11.625C21.75 12.6605 20.9105 13.5 19.875 13.5H2.625C1.58947 13.5 0.75 12.6605 0.75 11.625V1.875ZM7.5 6.75C7.5 4.67893 9.17893 3 11.25 3C13.3211 3 15 4.67893 15 6.75C15 8.82107 13.3211 10.5 11.25 10.5C9.17893 10.5 7.5 8.82107 7.5 6.75ZM18 6C17.5858 6 17.25 6.33579 17.25 6.75V6.7575C17.25 7.17171 17.5858 7.5075 18 7.5075H18.0075C18.4217 7.5075 18.7575 7.17171 18.7575 6.7575V6.75C18.7575 6.33579 18.4217 6 18.0075 6H18ZM3.75 6.75C3.75 6.33579 4.08579 6 4.5 6H4.5075C4.92171 6 5.2575 6.33579 5.2575 6.75V6.7575C5.2575 7.17171 4.92171 7.5075 4.5075 7.5075H4.5C4.08579 7.5075 3.75 7.17171 3.75 6.7575V6.75Z" fill="#A685FA"/>
<path d="M1.5 15C1.08579 15 0.75 15.3358 0.75 15.75C0.75 16.1642 1.08579 16.5 1.5 16.5C6.90005 16.5 12.1302 17.2222 17.0998 18.5749C18.2904 18.899 19.5 18.0168 19.5 16.7551V15.75C19.5 15.3358 19.1642 15 18.75 15H1.5Z" fill="#A685FA"/>
</svg>
